<svg width="40" height="40" viewBox="0 0 40 40" fill="none" xmlns="http://www.w3.org/2000/svg">
<circle cx="20" cy="20" r="20" fill="white"/>
<path d="M20.0199 28.53C17.6899 28.53 15.3599 28.16 13.1499 27.42C12.3099 27.13 11.6699 26.54 11.3899 25.77C11.0999 25 11.1999 24.15 11.6599 23.39L12.8099 21.48C13.0499 21.08 13.2699 20.28 13.2699 19.81V16.92C13.2699 13.2 16.2999 10.17 20.0199 10.17C23.7399 10.17 26.7699 13.2 26.7699 16.92V19.81C26.7699 20.27 26.9899 21.08 27.2299 21.49L28.3699 23.39C28.7999 24.11 28.8799 24.98 28.5899 25.77C28.2999 26.56 27.6699 27.16 26.8799 27.42C24.6799 28.16 22.3499 28.53 20.0199 28.53ZM20.0199 11.67C17.1299 11.67 14.7699 14.02 14.7699 16.92V19.81C14.7699 20.54 14.4699 21.62 14.0999 22.25L12.9499 24.16C12.7299 24.53 12.6699 24.92 12.7999 25.25C12.9199 25.59 13.2199 25.85 13.6299 25.99C17.8099 27.39 22.2399 27.39 26.4199 25.99C26.7799 25.87 27.0599 25.6 27.1899 25.24C27.3199 24.88 27.2899 24.49 27.0899 24.16L25.9399 22.25C25.5599 21.6 25.2699 20.53 25.2699 19.8V16.92C25.2699 14.02 22.9199 11.67 20.0199 11.67Z" fill="#667085"/>
<path d="M21.8801 11.94C21.8101 11.94 21.7401 11.93 21.6701 11.91C21.3801 11.83 21.1001 11.77 20.8301 11.73C19.9801 11.62 19.1601 11.68 18.3901 11.91C18.1101 12 17.8101 11.91 17.6201 11.7C17.4301 11.49 17.3701 11.19 17.4801 10.92C17.8901 9.86999 18.8901 9.17999 20.0301 9.17999C21.1701 9.17999 22.1701 9.85999 22.5801 10.92C22.6801 11.19 22.6301 11.49 22.4401 11.7C22.2901 11.86 22.0801 11.94 21.8801 11.94Z" fill="#667085"/>
<path d="M20.02 30.81C19.03 30.81 18.07 30.41 17.37 29.71C16.67 29.01 16.27 28.05 16.27 27.06H17.77C17.77 27.65 18.01 28.23 18.43 28.65C18.85 29.07 19.43 29.31 20.02 29.31C21.26 29.31 22.27 28.3 22.27 27.06H23.77C23.77 29.13 22.09 30.81 20.02 30.81Z" fill="#667085"/>
</svg>
