<svg width="27" height="28" viewBox="0 0 27 28" fill="none" xmlns="http://www.w3.org/2000/svg">
<path d="M13.5 0.666687C6.15329 0.666687 0.166626 6.65335 0.166626 14C0.166626 21.3467 6.15329 27.3334 13.5 27.3334C20.8466 27.3334 26.8333 21.3467 26.8333 14C26.8333 6.65335 20.8466 0.666687 13.5 0.666687ZM19.8733 10.9334L12.3133 18.4934C12.1266 18.68 11.8733 18.7867 11.6066 18.7867C11.34 18.7867 11.0866 18.68 10.9 18.4934L7.12663 14.72C6.73996 14.3334 6.73996 13.6934 7.12663 13.3067C7.51329 12.92 8.15329 12.92 8.53996 13.3067L11.6066 16.3734L18.46 9.52002C18.8466 9.13335 19.4866 9.13335 19.8733 9.52002C20.26 9.90669 20.26 10.5334 19.8733 10.9334Z" fill="#23A26D"/>
</svg>
