<svg width="16" height="16" viewBox="0 0 16 16" fill="none" xmlns="http://www.w3.org/2000/svg">
<path d="M8.41375 7.71938C8.45967 7.78703 8.48829 7.86491 8.49712 7.9462C8.50595 8.02748 8.4947 8.10969 8.46437 8.18563L7.46438 10.6856C7.4149 10.8088 7.31852 10.9072 7.19644 10.9593C7.07437 11.0114 6.9366 11.0129 6.81344 10.9634C6.69028 10.914 6.59182 10.8176 6.53972 10.6955C6.48762 10.5734 6.48615 10.4357 6.53562 10.3125L7.26125 8.5H6C5.91805 8.50014 5.83733 8.48014 5.76493 8.44175C5.69252 8.40337 5.63067 8.34777 5.5848 8.27987C5.53893 8.21196 5.51046 8.13382 5.50188 8.05232C5.49331 7.97082 5.50489 7.88847 5.53562 7.8125L6.53562 5.3125C6.58535 5.18934 6.68197 5.09098 6.80422 5.03905C6.92647 4.98713 7.06434 4.9859 7.1875 5.03562C7.31066 5.08535 7.40902 5.18197 7.46095 5.30422C7.51287 5.42647 7.5141 5.56434 7.46438 5.6875L6.73875 7.5H8C8.08163 7.50001 8.16202 7.52001 8.23415 7.55825C8.30627 7.59649 8.36793 7.65181 8.41375 7.71938ZM15.5 5.41437V10.5C15.5 10.8978 15.342 11.2794 15.0607 11.5607C14.7794 11.842 14.3978 12 14 12C13.6022 12 13.2206 11.842 12.9393 11.5607C12.658 11.2794 12.5 10.8978 12.5 10.5V8C12.5 7.86739 12.4473 7.74021 12.3536 7.64645C12.2598 7.55268 12.1326 7.5 12 7.5H11V13H12C12.1326 13 12.2598 13.0527 12.3536 13.1464C12.4473 13.2402 12.5 13.3674 12.5 13.5C12.5 13.6326 12.4473 13.7598 12.3536 13.8536C12.2598 13.9473 12.1326 14 12 14H2C1.86739 14 1.74021 13.9473 1.64645 13.8536C1.55268 13.7598 1.5 13.6326 1.5 13.5C1.5 13.3674 1.55268 13.2402 1.64645 13.1464C1.74021 13.0527 1.86739 13 2 13H3V3.5C3 3.10218 3.15804 2.72064 3.43934 2.43934C3.72064 2.15804 4.10218 2 4.5 2H9.5C9.89782 2 10.2794 2.15804 10.5607 2.43934C10.842 2.72064 11 3.10218 11 3.5V6.5H12C12.3978 6.5 12.7794 6.65804 13.0607 6.93934C13.342 7.22064 13.5 7.60218 13.5 8V10.5C13.5 10.6326 13.5527 10.7598 13.6464 10.8536C13.7402 10.9473 13.8674 11 14 11C14.1326 11 14.2598 10.9473 14.3536 10.8536C14.4473 10.7598 14.5 10.6326 14.5 10.5V5.41437C14.4996 5.28238 14.447 5.15589 14.3538 5.0625L13.1462 3.85375C13.0524 3.75993 12.9997 3.63268 12.9997 3.5C12.9997 3.36732 13.0524 3.24007 13.1462 3.14625C13.2401 3.05243 13.3673 2.99972 13.5 2.99972C13.6327 2.99972 13.7599 3.05243 13.8538 3.14625L15.0625 4.35375C15.2019 4.49288 15.3123 4.65824 15.3874 4.84028C15.4625 5.02233 15.5008 5.21745 15.5 5.41437ZM10 13V3.5C10 3.36739 9.94732 3.24021 9.85355 3.14645C9.75979 3.05268 9.63261 3 9.5 3H4.5C4.36739 3 4.24021 3.05268 4.14645 3.14645C4.05268 3.24021 4 3.36739 4 3.5V13H10Z" fill="#139372"/>
</svg>
