<svg width="22" height="18" viewBox="0 0 22 18" fill="none" xmlns="http://www.w3.org/2000/svg">
<path d="M10.6206 8.57906C10.6895 8.68054 10.7324 8.79736 10.7457 8.91929C10.7589 9.04122 10.7421 9.16454 10.6966 9.27844L9.19656 13.0284C9.12234 13.2132 8.97778 13.3609 8.79466 13.439C8.61155 13.5172 8.4049 13.5194 8.22016 13.4452C8.03542 13.3709 7.88773 13.2264 7.80958 13.0433C7.73143 12.8601 7.72922 12.6535 7.80344 12.4688L8.89187 9.75H7C6.87708 9.75021 6.75599 9.72021 6.64739 9.66263C6.53879 9.60505 6.446 9.52166 6.3772 9.4198C6.3084 9.31794 6.26568 9.20073 6.25282 9.07848C6.23996 8.95623 6.25734 8.8327 6.30344 8.71875L7.80344 4.96875C7.87803 4.78401 8.02295 4.63647 8.20633 4.55858C8.3897 4.4807 8.59651 4.47885 8.78125 4.55344C8.96599 4.62803 9.11353 4.77295 9.19142 4.95633C9.2693 5.1397 9.27115 5.34651 9.19656 5.53125L8.10812 8.25H10C10.1224 8.25002 10.243 8.28002 10.3512 8.33738C10.4594 8.39474 10.5519 8.47772 10.6206 8.57906ZM21.25 5.12156V12.75C21.25 13.3467 21.0129 13.919 20.591 14.341C20.169 14.7629 19.5967 15 19 15C18.4033 15 17.831 14.7629 17.409 14.341C16.9871 13.919 16.75 13.3467 16.75 12.75V9C16.75 8.80109 16.671 8.61032 16.5303 8.46967C16.3897 8.32902 16.1989 8.25 16 8.25H14.5V16.5H16C16.1989 16.5 16.3897 16.579 16.5303 16.7197C16.671 16.8603 16.75 17.0511 16.75 17.25C16.75 17.4489 16.671 17.6397 16.5303 17.7803C16.3897 17.921 16.1989 18 16 18H1C0.801088 18 0.610322 17.921 0.46967 17.7803C0.329018 17.6397 0.25 17.4489 0.25 17.25C0.25 17.0511 0.329018 16.8603 0.46967 16.7197C0.610322 16.579 0.801088 16.5 1 16.5H2.5V2.25C2.5 1.65326 2.73705 1.08097 3.15901 0.65901C3.58097 0.237053 4.15326 0 4.75 0H12.25C12.8467 0 13.419 0.237053 13.841 0.65901C14.2629 1.08097 14.5 1.65326 14.5 2.25V6.75H16C16.5967 6.75 17.169 6.98705 17.591 7.40901C18.0129 7.83097 18.25 8.40326 18.25 9V12.75C18.25 12.9489 18.329 13.1397 18.4697 13.2803C18.6103 13.421 18.8011 13.5 19 13.5C19.1989 13.5 19.3897 13.421 19.5303 13.2803C19.671 13.1397 19.75 12.9489 19.75 12.75V5.12156C19.7494 4.92356 19.6706 4.73383 19.5306 4.59375L17.7194 2.78062C17.5786 2.63989 17.4996 2.44902 17.4996 2.25C17.4996 2.05098 17.5786 1.86011 17.7194 1.71938C17.8601 1.57864 18.051 1.49958 18.25 1.49958C18.449 1.49958 18.6399 1.57864 18.7806 1.71938L20.5937 3.53063C20.8028 3.73931 20.9684 3.98736 21.0811 4.26043C21.1937 4.5335 21.2511 4.82618 21.25 5.12156ZM13 16.5V2.25C13 2.05109 12.921 1.86032 12.7803 1.71967C12.6397 1.57902 12.4489 1.5 12.25 1.5H4.75C4.55109 1.5 4.36032 1.57902 4.21967 1.71967C4.07902 1.86032 4 2.05109 4 2.25V16.5H13Z" fill="#B1B1B1"/>
</svg>
