<svg width="33" height="33" viewBox="0 0 33 33" fill="none" xmlns="http://www.w3.org/2000/svg">
<path d="M17.3315 21.4958C14.9415 21.4958 13.0015 19.5558 13.0015 17.1658C13.0015 14.7758 14.9415 12.8358 17.3315 12.8358C19.7215 12.8358 21.6615 14.7758 21.6615 17.1658C21.6615 19.5558 19.7215 21.4958 17.3315 21.4958ZM17.3315 14.3358C15.7715 14.3358 14.5015 15.6058 14.5015 17.1658C14.5015 18.7258 15.7715 19.9958 17.3315 19.9958C18.8915 19.9958 20.1615 18.7258 20.1615 17.1658C20.1615 15.6058 18.8915 14.3358 17.3315 14.3358Z" fill="#667085"/>
<path d="M17.3316 26.1859C13.5716 26.1859 10.0216 23.9859 7.58162 20.1659C6.52162 18.5159 6.52162 15.8259 7.58162 14.1659C10.0316 10.3459 13.5816 8.14586 17.3316 8.14586C21.0816 8.14586 24.6316 10.3459 27.0716 14.1659C28.1316 15.8159 28.1316 18.5059 27.0716 20.1659C24.6316 23.9859 21.0816 26.1859 17.3316 26.1859ZM17.3316 9.64586C14.1016 9.64586 11.0116 11.5859 8.85162 14.9759C8.10162 16.1459 8.10162 18.1859 8.85162 19.3559C11.0116 22.7459 14.1016 24.6859 17.3316 24.6859C20.5616 24.6859 23.6516 22.7459 25.8116 19.3559C26.5616 18.1859 26.5616 16.1459 25.8116 14.9759C23.6516 11.5859 20.5616 9.64586 17.3316 9.64586Z" fill="#667085"/>
</svg>
