<svg width="25" height="25" viewBox="0 0 25 25" fill="none" xmlns="http://www.w3.org/2000/svg">
<path d="M10.3039 15.8203C10.1139 15.8203 9.92391 15.7503 9.77391 15.6003C8.95391 14.7803 8.50391 13.6903 8.50391 12.5403C8.50391 10.1503 10.4439 8.21028 12.8339 8.21028C13.9839 8.21028 15.0739 8.66028 15.8939 9.48028C16.0339 9.62028 16.1139 9.81028 16.1139 10.0103C16.1139 10.2103 16.0339 10.4003 15.8939 10.5403L10.8339 15.6003C10.6839 15.7503 10.4939 15.8203 10.3039 15.8203ZM12.8339 9.71028C11.2739 9.71028 10.0039 10.9803 10.0039 12.5403C10.0039 13.0403 10.1339 13.5203 10.3739 13.9403L14.2339 10.0803C13.8139 9.84028 13.3339 9.71028 12.8339 9.71028Z" fill="#667085"/>
<path d="M6.43407 19.0503C6.26407 19.0503 6.08407 18.9903 5.94407 18.8703C4.87407 17.9603 3.91407 16.8403 3.09407 15.5403C2.03407 13.8903 2.03407 11.2003 3.09407 9.54029C5.53407 5.72029 9.08407 3.52029 12.8341 3.52029C15.0341 3.52029 17.2041 4.28029 19.1041 5.71029C19.4341 5.96029 19.5041 6.43029 19.2541 6.76029C19.0041 7.09029 18.5341 7.16029 18.2041 6.91029C16.5641 5.67029 14.7041 5.02029 12.8341 5.02029C9.60407 5.02029 6.51407 6.96029 4.35407 10.3503C3.60407 11.5203 3.60407 13.5603 4.35407 14.7303C5.10407 15.9003 5.96407 16.9103 6.91407 17.7303C7.22407 18.0003 7.26407 18.4703 6.99407 18.7903C6.85407 18.9603 6.64407 19.0503 6.43407 19.0503Z" fill="#667085"/>
<path d="M12.834 21.5603C11.504 21.5603 10.204 21.2903 8.95405 20.7603C8.57405 20.6003 8.39405 20.1603 8.55405 19.7803C8.71405 19.4003 9.15405 19.2203 9.53405 19.3803C10.594 19.8303 11.704 20.0603 12.824 20.0603C16.054 20.0603 19.144 18.1203 21.304 14.7303C22.054 13.5603 22.054 11.5203 21.304 10.3503C20.994 9.86028 20.654 9.39028 20.294 8.95028C20.034 8.63028 20.084 8.16028 20.404 7.89028C20.724 7.63028 21.194 7.67028 21.464 8.00028C21.854 8.48028 22.234 9.00028 22.574 9.54028C23.634 11.1903 23.634 13.8803 22.574 15.5403C20.134 19.3603 16.584 21.5603 12.834 21.5603Z" fill="#667085"/>
<path d="M13.5241 16.8103C13.1741 16.8103 12.8541 16.5603 12.7841 16.2003C12.7041 15.7903 12.9741 15.4003 13.3841 15.3303C14.4841 15.1303 15.4041 14.2103 15.6041 13.1103C15.6841 12.7003 16.0741 12.4403 16.4841 12.5103C16.8941 12.5903 17.1641 12.9803 17.0841 13.3903C16.7641 15.1203 15.3841 16.4903 13.6641 16.8103C13.6141 16.8003 13.5741 16.8103 13.5241 16.8103Z" fill="#667085"/>
<path d="M2.83393 23.2903C2.64393 23.2903 2.45393 23.2203 2.30393 23.0703C2.01393 22.7803 2.01393 22.3003 2.30393 22.0103L9.77393 14.5403C10.0639 14.2503 10.5439 14.2503 10.8339 14.5403C11.1239 14.8303 11.1239 15.3103 10.8339 15.6003L3.36393 23.0703C3.21393 23.2203 3.02393 23.2903 2.83393 23.2903Z" fill="#667085"/>
<path d="M15.364 10.7603C15.174 10.7603 14.984 10.6903 14.834 10.5403C14.544 10.2503 14.544 9.77028 14.834 9.48028L22.304 2.01028C22.594 1.72028 23.074 1.72028 23.364 2.01028C23.654 2.30028 23.654 2.78028 23.364 3.07028L15.894 10.5403C15.744 10.6903 15.554 10.7603 15.364 10.7603Z" fill="#667085"/>
</svg>
