<svg width="55" height="55" viewBox="0 0 55 55" fill="none" xmlns="http://www.w3.org/2000/svg">
<path d="M27.5 0C12.3062 0 0 12.3062 0 27.5C0 42.6937 12.3062 55 27.5 55C42.6937 55 55 42.6937 55 27.5C55 12.3062 42.6937 0 27.5 0ZM39.8358 35.9445C40.6168 36.7256 40.6168 37.9919 39.8358 38.773L38.773 39.8358C37.9919 40.6168 36.7256 40.6168 35.9445 39.8358L28.9142 32.8055C28.1332 32.0244 26.8668 32.0244 26.0858 32.8055L19.0555 39.8358C18.2744 40.6168 17.0081 40.6168 16.227 39.8358L15.1642 38.773C14.3832 37.9919 14.3832 36.7256 15.1642 35.9445L22.1945 28.9142C22.9756 28.1332 22.9756 26.8668 22.1945 26.0858L15.1642 19.0555C14.3832 18.2744 14.3832 17.0081 15.1642 16.227L16.227 15.1642C17.0081 14.3832 18.2744 14.3832 19.0555 15.1642L26.0858 22.1945C26.8668 22.9756 28.1332 22.9756 28.9142 22.1945L35.9445 15.1642C36.7256 14.3832 37.9919 14.3832 38.773 15.1642L39.8358 16.227C40.6168 17.0081 40.6168 18.2744 39.8358 19.0555L32.8055 26.0858C32.0244 26.8668 32.0244 28.1332 32.8055 28.9142L39.8358 35.9445Z" fill="#B51919"/>
</svg>
