<svg width="24" height="25" viewBox="0 0 24 25" fill="none" xmlns="http://www.w3.org/2000/svg">
<path d="M12 19.8509C16.1421 19.8509 19.5 16.493 19.5 12.3509C19.5 8.20874 16.1421 4.85088 12 4.85088C7.85786 4.85088 4.5 8.20874 4.5 12.3509C4.5 16.493 7.85786 19.8509 12 19.8509Z" stroke="#139372" stroke-linecap="round" stroke-linejoin="round"/>
<path d="M12 15.3509C13.6569 15.3509 15 14.0077 15 12.3509C15 10.694 13.6569 9.35088 12 9.35088C10.3431 9.35088 9 10.694 9 12.3509C9 14.0077 10.3431 15.3509 12 15.3509Z" stroke="#139372" stroke-linecap="round" stroke-linejoin="round"/>
<path d="M12 4.35088V2.35088" stroke="#139372" stroke-width="1.5" stroke-linecap="round" stroke-linejoin="round"/>
<path d="M4 12.3509H2" stroke="#139372" stroke-width="1.5" stroke-linecap="round" stroke-linejoin="round"/>
<path d="M12 20.3509V22.3509" stroke="#139372" stroke-width="1.5" stroke-linecap="round" stroke-linejoin="round"/>
<path d="M20 12.3509H22" stroke="#139372" stroke-width="1.5" stroke-linecap="round" stroke-linejoin="round"/>
</svg>
