<svg width="48" height="48" viewBox="0 0 48 48" fill="none" xmlns="http://www.w3.org/2000/svg">
<g filter="url(#filter0_d_18_460)">
<circle cx="24" cy="20" r="20" fill="#139372"/>
</g>
<path d="M24 27.5C28.1421 27.5 31.5 24.1421 31.5 20C31.5 15.8579 28.1421 12.5 24 12.5C19.8579 12.5 16.5 15.8579 16.5 20C16.5 24.1421 19.8579 27.5 24 27.5Z" stroke="white" stroke-linecap="round" stroke-linejoin="round"/>
<path d="M24 23C25.6569 23 27 21.6569 27 20C27 18.3431 25.6569 17 24 17C22.3431 17 21 18.3431 21 20C21 21.6569 22.3431 23 24 23Z" stroke="white" stroke-linecap="round" stroke-linejoin="round"/>
<path d="M24 12V10" stroke="white" stroke-width="1.5" stroke-linecap="round" stroke-linejoin="round"/>
<path d="M16 20H14" stroke="white" stroke-width="1.5" stroke-linecap="round" stroke-linejoin="round"/>
<path d="M24 28V30" stroke="white" stroke-width="1.5" stroke-linecap="round" stroke-linejoin="round"/>
<path d="M32 20H34" stroke="white" stroke-width="1.5" stroke-linecap="round" stroke-linejoin="round"/>
<defs>
<filter id="filter0_d_18_460" x="0" y="0" width="48" height="48" filterUnits="userSpaceOnUse" color-interpolation-filters="sRGB">
<feFlood flood-opacity="0" result="BackgroundImageFix"/>
<feColorMatrix in="SourceAlpha" type="matrix" values="0 0 0 0 0 0 0 0 0 0 0 0 0 0 0 0 0 0 127 0" result="hardAlpha"/>
<feOffset dy="4"/>
<feGaussianBlur stdDeviation="2"/>
<feComposite in2="hardAlpha" operator="out"/>
<feColorMatrix type="matrix" values="0 0 0 0 0 0 0 0 0 0 0 0 0 0 0 0 0 0 0.25 0"/>
<feBlend mode="normal" in2="BackgroundImageFix" result="effect1_dropShadow_18_460"/>
<feBlend mode="normal" in="SourceGraphic" in2="effect1_dropShadow_18_460" result="shape"/>
</filter>
</defs>
</svg>
