<svg width="68" height="68" viewBox="0 0 68 68" fill="none" xmlns="http://www.w3.org/2000/svg">
<circle cx="34" cy="34" r="25" fill="#7CE567"/>
<g filter="url(#filter0_dd_87_5097)">
<path d="M33.75 23.75C28.24 23.75 23.75 28.24 23.75 33.75C23.75 39.26 28.24 43.75 33.75 43.75C39.26 43.75 43.75 39.26 43.75 33.75C43.75 28.24 39.26 23.75 33.75 23.75ZM38.53 31.45L32.86 37.12C32.72 37.26 32.53 37.34 32.33 37.34C32.13 37.34 31.94 37.26 31.8 37.12L28.97 34.29C28.68 34 28.68 33.52 28.97 33.23C29.26 32.94 29.74 32.94 30.03 33.23L32.33 35.53L37.47 30.39C37.76 30.1 38.24 30.1 38.53 30.39C38.82 30.68 38.82 31.15 38.53 31.45Z" fill="#FFFDFC"/>
</g>
<defs>
<filter id="filter0_dd_87_5097" x="12.75" y="15.75" width="42" height="42" filterUnits="userSpaceOnUse" color-interpolation-filters="sRGB">
<feFlood flood-opacity="0" result="BackgroundImageFix"/>
<feColorMatrix in="SourceAlpha" type="matrix" values="0 0 0 0 0 0 0 0 0 0 0 0 0 0 0 0 0 0 127 0" result="hardAlpha"/>
<feOffset dy="3"/>
<feGaussianBlur stdDeviation="4.5"/>
<feComposite in2="hardAlpha" operator="out"/>
<feColorMatrix type="matrix" values="0 0 0 0 0.174818 0 0 0 0 0.174818 0 0 0 0 0.174818 0 0 0 0.1 0"/>
<feBlend mode="normal" in2="BackgroundImageFix" result="effect1_dropShadow_87_5097"/>
<feColorMatrix in="SourceAlpha" type="matrix" values="0 0 0 0 0 0 0 0 0 0 0 0 0 0 0 0 0 0 127 0" result="hardAlpha"/>
<feOffset/>
<feGaussianBlur stdDeviation="0.75"/>
<feComposite in2="hardAlpha" operator="out"/>
<feColorMatrix type="matrix" values="0 0 0 0 0 0 0 0 0 0 0 0 0 0 0 0 0 0 0.05 0"/>
<feBlend mode="normal" in2="effect1_dropShadow_87_5097" result="effect2_dropShadow_87_5097"/>
<feBlend mode="normal" in="SourceGraphic" in2="effect2_dropShadow_87_5097" result="shape"/>
</filter>
</defs>
</svg>
