<svg width="16" height="16" viewBox="0 0 16 16" fill="none" xmlns="http://www.w3.org/2000/svg">
<path d="M8.43784 1.60496C8.35552 1.43857 8.18581 1.33325 8 1.33325C7.81419 1.33325 7.64448 1.43857 7.56216 1.60496L5.66365 5.44263L1.41783 6.06185C1.23386 6.08868 1.08111 6.21751 1.0238 6.39417C0.966487 6.57083 1.01457 6.76466 1.14782 6.89416L4.21936 9.87923L3.49449 14.0962C3.46304 14.2792 3.53831 14.4642 3.68867 14.5734C3.83903 14.6825 4.03839 14.697 4.20295 14.6106L8 12.6182L11.7971 14.6106C11.9616 14.697 12.161 14.6825 12.3113 14.5734C12.4617 14.4642 12.537 14.2792 12.5055 14.0962L11.7806 9.87923L14.8522 6.89416C14.9854 6.76466 15.0335 6.57083 14.9762 6.39417C14.9189 6.21751 14.7661 6.08868 14.5822 6.06185L10.3363 5.44263L8.43784 1.60496Z" fill="#FEC84B"/>
</svg>
