<svg width="25" height="24" viewBox="0 0 25 24" fill="none" xmlns="http://www.w3.org/2000/svg">
<path d="M2.5 9V6.5C2.5 4.01 4.51 2 7 2H9.5" stroke="#73656C" stroke-width="1.5" stroke-linecap="round" stroke-linejoin="round"/>
<path d="M15.5 2H18C20.49 2 22.5 4.01 22.5 6.5V9" stroke="#73656C" stroke-width="1.5" stroke-linecap="round" stroke-linejoin="round"/>
<path d="M22.5 16V17.5C22.5 19.99 20.49 22 18 22H16.5" stroke="#73656C" stroke-width="1.5" stroke-linecap="round" stroke-linejoin="round"/>
<path d="M9.5 22H7C4.51 22 2.5 19.99 2.5 17.5V15" stroke="#73656C" stroke-width="1.5" stroke-linecap="round" stroke-linejoin="round"/>
<path d="M17.5 9.5V14.5C17.5 16.5 16.5 17.5 14.5 17.5H10.5C8.5 17.5 7.5 16.5 7.5 14.5V9.5C7.5 7.5 8.5 6.5 10.5 6.5H14.5C16.5 6.5 17.5 7.5 17.5 9.5Z" stroke="#73656C" stroke-width="1.5" stroke-linecap="round" stroke-linejoin="round"/>
<path d="M19.5 12H5.5" stroke="#73656C" stroke-width="1.5" stroke-linecap="round" stroke-linejoin="round"/>
</svg>
