<svg width="16" height="16" viewBox="0 0 16 16" fill="none" xmlns="http://www.w3.org/2000/svg">
<path d="M8.00004 15.1666C4.04671 15.1666 0.833374 11.9533 0.833374 7.99992C0.833374 4.04659 4.04671 0.833252 8.00004 0.833252C11.9534 0.833252 15.1667 4.04659 15.1667 7.99992C15.1667 11.9533 11.9534 15.1666 8.00004 15.1666ZM8.00004 1.83325C4.60004 1.83325 1.83337 4.59992 1.83337 7.99992C1.83337 11.3999 4.60004 14.1666 8.00004 14.1666C11.4 14.1666 14.1667 11.3999 14.1667 7.99992C14.1667 4.59992 11.4 1.83325 8.00004 1.83325Z" fill="#139372"/>
<path d="M10.4733 10.6199C10.3867 10.6199 10.3 10.5999 10.22 10.5466L8.15334 9.31326C7.64001 9.00659 7.26001 8.33326 7.26001 7.73992V5.00659C7.26001 4.73326 7.48668 4.50659 7.76001 4.50659C8.03334 4.50659 8.26001 4.73326 8.26001 5.00659V7.73992C8.26001 7.97992 8.46001 8.33326 8.66668 8.45326L10.7333 9.68659C10.9733 9.82659 11.0467 10.1333 10.9067 10.3733C10.8067 10.5333 10.64 10.6199 10.4733 10.6199Z" fill="#139372"/>
</svg>
