<svg width="50" height="56" viewBox="0 0 77 76" fill="none" xmlns="http://www.w3.org/2000/svg">
<path fill-rule="evenodd" clip-rule="evenodd" d="M49.414 58.4929C49.8766 59.1277 50.013 59.3503 50.0653 59.9145C50.1011 60.3074 50.0749 60.5319 49.9482 60.8987L45.6427 73.3835C45.4414 73.8964 45.0243 74.4635 44.4185 75.0142H49.1169C48.7685 74.7045 48.5449 74.3367 48.4636 73.8984C48.3901 73.4977 48.393 73.3467 48.4801 72.9616L49.4353 69.9964H54.903L55.7546 72.2812C55.8437 72.5203 55.8949 72.7429 55.9172 72.9993C55.9927 73.8529 55.7188 74.5555 55.0414 75.0509H62.4069C61.684 74.4074 61.0211 73.7338 60.6466 72.9161L55.2688 58.4929H49.414ZM65.1311 67.3322L59.343 59.0329L58.7546 58.4929H64.4595L68.3266 64.7667L68.6372 64.5132L70.9743 61.039C71.5491 60.1854 71.4717 59.1945 70.653 58.4929H76.0443L69.812 67.3303L69.8091 73.7416L70.9075 75.048H64.2098L65.1543 73.7609C65.1543 71.6242 65.0759 69.4622 65.1311 67.3322ZM34.5204 58.5074L38.2211 58.4929H42.7153C45.1878 58.4929 47.2104 60.5154 47.2104 62.9871V63.5406C47.2104 66.0122 45.1869 67.8974 42.7153 67.9729L40.6656 68.0348C42.3136 67.2771 43.0037 65.3629 42.7975 63.6383C42.633 62.2545 41.9198 60.9238 40.7324 60.8987L39.9833 60.8832V73.2016C39.9833 73.4416 40.0249 73.5413 40.1507 73.7522C40.352 74.0871 40.6201 74.4219 40.8969 74.7567C40.9685 74.8438 41.0411 74.9309 41.1127 75.018H34.7382C34.834 74.9009 34.9278 74.7819 35.0169 74.66C35.2104 74.3967 35.3817 74.1171 35.5104 73.8055C35.5927 73.6061 35.6333 73.458 35.6333 73.2442V60.0113C35.6082 59.3213 34.923 58.9293 34.5204 58.5074ZM54.1007 67.8461H50.1901L52.0859 62.4422L54.1007 67.8461ZM41.4998 17.1316L36.7066 21.9248L36.4675 22.1609L34.9443 23.6861L31.3859 27.2454L31.1498 27.4845H31.1469L28.9007 29.7267V29.7306L28.6656 29.9658C27.992 30.6393 27.2478 31.1919 26.4562 31.6283C26.0556 31.849 25.6462 32.0387 25.2272 32.1993C24.2943 32.5593 23.314 32.7703 22.3269 32.8322C21.722 32.8729 21.1075 32.8574 20.5056 32.7829C19.203 32.628 17.9246 32.2119 16.7585 31.5354C16.2591 31.2471 15.7462 30.9461 15.3214 30.5242C15.3185 30.5242 15.3185 30.5242 15.3156 30.5213C15.2227 30.4313 15.1298 30.3383 15.0369 30.2416L6.123 21.3287C5.97107 21.1613 5.83461 20.9783 5.72042 20.7829C5.42816 20.2893 5.26074 19.7193 5.26074 19.1048C5.26074 19.009 5.26365 18.9122 5.27332 18.8193C5.2859 18.6761 5.3072 18.5396 5.33526 18.4061C5.34784 18.3538 5.36042 18.3016 5.373 18.2512C5.37881 18.23 5.38461 18.2077 5.39139 18.1864C5.51526 17.7771 5.71752 17.389 5.99623 17.0416C6.07074 16.9516 6.14816 16.8645 6.23236 16.7774L6.3872 16.6254L15.6843 7.32448H15.6882L21.3224 1.69125C22.5785 0.435119 24.5798 0.37899 25.8978 1.52964L41.4998 17.1316Z" fill="#0D5BA9"/>
<path fill-rule="evenodd" clip-rule="evenodd" d="M22.326 63.8147V72.5707C22.326 72.9259 22.4165 72.9891 22.6562 73.2745L23.7583 74.5815H18.4952C18.7906 74.1698 19.0872 73.758 19.3837 73.3463C19.613 73.0064 19.7108 72.8905 19.7108 72.496V60.2631L18.2323 58.0722H23.6857L32.5169 68.4302V60.176C32.5169 59.7815 32.4317 59.6541 32.2025 59.3142C31.9059 58.9024 31.5968 58.5022 31.3013 58.0904H36.5592L35.4624 59.3975C35.2226 59.6829 35.1322 59.7461 35.1322 60.1013V75C33.1405 74.7616 31.2855 74.3182 29.6366 72.3983L22.326 63.8147V63.8147ZM0 58.0722H5.59229L10.2844 70.3261L14.2657 60.176C14.3372 59.7815 14.2752 59.6541 14.1101 59.3142C13.8892 58.9024 13.6537 58.5022 13.4339 58.0904H17.6097C17.3626 58.9187 16.9967 59.8284 16.6812 60.6634L11.2887 74.9339C9.81648 74.6668 8.17497 74.1363 6.90571 73.0408C5.95088 72.2164 5.61122 71.2789 5.14011 70.1624L0.629896 59.2874C0.452179 58.8584 0.23345 58.4735 0 58.0722V58.0722ZM75.008 26.1117L74.7514 26.3482L63.3839 36.8556L51.4474 47.8915C51.0667 48.2381 50.6682 48.5512 50.2465 48.8337C50.2339 48.8461 50.2171 48.8586 50.1992 48.871C50.1424 48.9074 50.0846 48.9476 50.0246 48.984C50.0173 48.9898 50.0109 48.9936 50.0046 48.9993C48.2043 50.1724 45.996 50.8599 43.6163 50.8599C40.6761 50.8599 38.0061 49.8094 36.0313 48.1002C36.0271 48.0973 36.0271 48.0973 36.0239 48.0945C35.9335 48.0236 35.8451 47.9527 35.7579 47.879L33.7052 46.0098L27.9373 40.7547L25.7426 38.7554C26.056 38.8023 26.3725 38.8233 26.689 38.8233L26.9562 38.8205C27.3232 38.808 27.6912 38.7688 28.0519 38.7008C28.6418 38.5897 29.2381 38.4059 29.8249 38.154C31.0857 37.6111 32.0258 36.8584 32.4748 36.4601C32.6494 36.303 32.7808 36.1709 32.8355 36.1125L37.2721 32.1434L37.2879 32.1616L52.5431 18.4953L52.6231 18.4072L60.0335 11.7675C61.0315 10.8798 62.5889 10.763 63.7214 11.4725L65.4776 13.0717C65.4807 13.0717 65.4807 13.0745 65.4807 13.0745L75.008 21.75C75.0921 21.8266 75.1731 21.9061 75.2478 21.9894C76.3256 23.2017 76.2447 24.9885 75.008 26.1117ZM16.5645 30.3575C16.6055 30.3949 16.6465 30.4313 16.6875 30.4677C17.1491 30.8852 17.7096 31.1858 18.2554 31.4722C19.5225 32.1405 20.9117 32.5523 22.3282 32.7055C22.9812 32.7792 23.6489 32.7945 24.3062 32.7543C25.3777 32.693 26.444 32.4843 27.4588 32.1281C27.9141 31.9691 28.3579 31.7814 28.7933 31.5631C29.6524 31.1313 30.4621 30.5845 31.194 29.918L31.4495 29.6853V29.6815L33.8903 27.4619H33.8934L34.15 27.2263L34.8714 26.5694L36.7831 24.8286L38.0166 23.7054L39.6718 22.1953L39.9316 21.9617L50.4253 12.4052L54.7546 8.13543C54.7641 8.12585 54.7704 8.12011 54.7809 8.11053L55.0143 7.90274C56.3351 6.69909 58.4793 6.69909 59.8001 7.90274L62.1703 10.0601H62.1735L62.2513 10.131C61.2029 10.085 60.1439 10.4288 59.3521 11.1345L51.3328 18.3172L51.2518 18.4072L37.2953 30.9129L37.2742 30.8976L32.1341 35.4958L32.1005 35.5332C32.0868 35.5485 31.9753 35.6615 31.7903 35.8271C31.3854 36.1862 30.5389 36.8651 29.4074 37.3535C28.8942 37.5737 28.3716 37.7336 27.8563 37.8323C27.5492 37.8869 27.2359 37.9242 26.9288 37.9366H26.6964C25.8804 37.9366 25.078 37.771 24.3093 37.4512L22.3681 35.6864L21.8928 35.2564L21.8118 35.1798L20.9085 34.3573L16.5645 30.3575C16.5045 30.3039 16.4446 30.2484 16.3836 30.1919L16.5645 30.3575V30.3575Z" fill="#EC1F27"/>
</svg>
